<?xml version="1.0" encoding="UTF-8" standalone="no"?>
<!-- Created with Inkscape (http://www.inkscape.org/) -->

<svg
   width="118.67415mm"
   height="130.84525mm"
   viewBox="0 0 118.67415 130.84525"
   version="1.1"
   id="svg42705"
   inkscape:version="1.1.2 (0a00cf5339, 2022-02-04)"
   sodipodi:docname="pic2.svg"
   xmlns:inkscape="http://www.inkscape.org/namespaces/inkscape"
   xmlns:sodipodi="http://sodipodi.sourceforge.net/DTD/sodipodi-0.dtd"
   xmlns="http://www.w3.org/2000/svg"
   xmlns:svg="http://www.w3.org/2000/svg">
  <sodipodi:namedview
     id="namedview42707"
     pagecolor="#505050"
     bordercolor="#eeeeee"
     borderopacity="1"
     inkscape:pageshadow="0"
     inkscape:pageopacity="0"
     inkscape:pagecheckerboard="0"
     inkscape:document-units="mm"
     showgrid="false"
     fit-margin-top="0"
     fit-margin-left="0"
     fit-margin-right="0"
     fit-margin-bottom="0"
     inkscape:zoom="0.75187991"
     inkscape:cx="202.82494"
     inkscape:cy="333.16491"
     inkscape:window-width="1850"
     inkscape:window-height="1016"
     inkscape:window-x="70"
     inkscape:window-y="27"
     inkscape:window-maximized="1"
     inkscape:current-layer="layer1" />
  <defs
     id="defs42702">
    <marker
       style="overflow:visible"
       id="Arrow2Mend-8-28-0"
       refX="0"
       refY="0"
       orient="auto"
       inkscape:stockid="Arrow2Mend"
       inkscape:isstock="true">
      <path
         transform="scale(-0.6)"
         d="M 8.7185878,4.0337352 -2.2072895,0.01601326 8.7185884,-4.0017078 c -1.7454984,2.3720609 -1.7354408,5.6174519 -6e-7,8.035443 z"
         style="fill:context-stroke;fill-rule:evenodd;stroke:context-stroke;stroke-width:0.625;stroke-linejoin:round"
         id="path4346-3-96-5" />
    </marker>
    <marker
       style="overflow:visible"
       id="Arrow2Mstart-5"
       refX="0"
       refY="0"
       orient="auto"
       inkscape:stockid="Arrow2Mstart"
       inkscape:isstock="true">
      <path
         transform="scale(0.6)"
         d="M 8.7185878,4.0337352 -2.2072895,0.01601326 8.7185884,-4.0017078 c -1.7454984,2.3720609 -1.7354408,5.6174519 -6e-7,8.035443 z"
         style="fill:context-stroke;fill-rule:evenodd;stroke:context-stroke;stroke-width:0.625;stroke-linejoin:round"
         id="path146915-5" />
    </marker>
    <marker
       style="overflow:visible"
       id="Arrow2Mstart-5-3"
       refX="0"
       refY="0"
       orient="auto"
       inkscape:stockid="Arrow2Mstart"
       inkscape:isstock="true">
      <path
         transform="scale(0.6)"
         d="M 8.7185878,4.0337352 -2.2072895,0.01601326 8.7185884,-4.0017078 c -1.7454984,2.3720609 -1.7354408,5.6174519 -6e-7,8.035443 z"
         style="fill:context-stroke;fill-rule:evenodd;stroke:context-stroke;stroke-width:0.625;stroke-linejoin:round"
         id="path146915-5-3" />
    </marker>
    <marker
       style="overflow:visible"
       id="Arrow2Mstart"
       refX="0"
       refY="0"
       orient="auto"
       inkscape:stockid="Arrow2Mstart"
       inkscape:isstock="true">
      <path
         transform="scale(0.6)"
         d="M 8.7185878,4.0337352 -2.2072895,0.01601326 8.7185884,-4.0017078 c -1.7454984,2.3720609 -1.7354408,5.6174519 -6e-7,8.035443 z"
         style="fill:context-stroke;fill-rule:evenodd;stroke:context-stroke;stroke-width:0.625;stroke-linejoin:round"
         id="path146915" />
    </marker>
    <marker
       style="overflow:visible"
       id="marker149544"
       refX="0"
       refY="0"
       orient="auto"
       inkscape:stockid="Arrow2Mend"
       inkscape:isstock="true">
      <path
         transform="scale(-0.6)"
         d="M 8.7185878,4.0337352 -2.2072895,0.01601326 8.7185884,-4.0017078 c -1.7454984,2.3720609 -1.7354408,5.6174519 -6e-7,8.035443 z"
         style="fill:context-stroke;fill-rule:evenodd;stroke:context-stroke;stroke-width:0.625;stroke-linejoin:round"
         id="path146918" />
    </marker>
  </defs>
  <g
     inkscape:label="Layer 1"
     inkscape:groupmode="layer"
     id="layer1"
     transform="translate(-48.176765,3.6722887)">
    <g
       id="g43169">
      <rect
         style="fill:#ffffff;stroke-width:0.465;stroke-linecap:square;stroke-linejoin:round;paint-order:markers stroke fill"
         id="rect43039"
         width="118.67415"
         height="130.84525"
         x="48.176765"
         y="-3.6722887" />
      <g
         id="g145611-0-7"
         transform="translate(148.64732,185.84351)">
        <ellipse
           style="fill:#ffffff;fill-opacity:1;fill-rule:evenodd;stroke:#000000;stroke-width:1;stroke-miterlimit:4;stroke-dasharray:none;stroke-opacity:1"
           id="path3438-9-1-6"
           cx="-53.621189"
           cy="-87.458138"
           rx="23.859074"
           ry="10.583333" />
        <ellipse
           style="fill:#ffffff;fill-opacity:1;fill-rule:evenodd;stroke:#000000;stroke-width:1;stroke-miterlimit:4;stroke-dasharray:none;stroke-opacity:1"
           id="path3438-3-82"
           cx="-53.667763"
           cy="-88.486229"
           rx="23.8125"
           ry="10.583333" />
        <path
           style="fill:none;stroke:#000000;stroke-width:1;stroke-linecap:butt;stroke-linejoin:miter;stroke-miterlimit:4;stroke-dasharray:none;stroke-opacity:1;marker-end:url(#Arrow2Mend-8-28-0)"
           d="m -83.383418,-81.509442 c 4.951578,10.920487 20.938903,10.06171 28.401217,10.189679"
           id="path4237-8-7-0"
           sodipodi:nodetypes="cc" />
        <g
           id="g30969-3-2-7-6"
           transform="translate(-54.954875,-266.8587)"
           style="stroke-width:1;stroke-miterlimit:4;stroke-dasharray:none">
          <path
             style="fill:#ffffff;fill-opacity:1;stroke:#000000;stroke-width:1;stroke-linecap:butt;stroke-linejoin:round;stroke-miterlimit:4;stroke-dasharray:none;stroke-opacity:1"
             d="m -8.5557107,172.68736 -2.6458343,10.58334 23.246086,-0.0224 1.889331,-10.56097 z"
             id="path4972-5-4-7-2-4"
             sodipodi:nodetypes="ccccc" />
          <path
             style="fill:#ffffff;fill-opacity:1;stroke:#000000;stroke-width:1;stroke-linecap:butt;stroke-linejoin:round;stroke-miterlimit:4;stroke-dasharray:none;stroke-opacity:1"
             d="m -4.9655087,173.22336 -2.318988,9.27595 h 15.855223 l 1.9235627,-9.28278 z"
             id="path4972-1-5-5-9-4-6-3"
             sodipodi:nodetypes="ccccc" />
        </g>
      </g>
      <g
         id="g147073-2-9"
         transform="translate(148.64732,185.84351)">
        <rect
           style="fill:#fcfdfd;fill-opacity:1;stroke:#fefefe;stroke-width:1;stroke-linejoin:round;stroke-miterlimit:4;stroke-dasharray:none;stroke-dashoffset:0;stroke-opacity:1;paint-order:markers stroke fill"
           id="rect146295-0-0"
           width="5.2661686"
           height="6.6524134"
           x="54.952507"
           y="-76.239334"
           transform="rotate(-57.281895)" />
        <path
           id="path146588-2-4"
           style="fill:#000000;stroke:#010101;stroke-width:0.35;stroke-miterlimit:4;stroke-dasharray:none;stroke-opacity:1"
           sodipodi:type="inkscape:offset"
           inkscape:radius="0"
           inkscape:original="M -31.136719 -92.044922 C -31.327132 -92.127762 -31.649747 -92.122413 -31.822266 -92.033203 C -31.900174 -91.992918 -31.999029 -91.885569 -32.042969 -91.792969 C -32.086917 -91.70036 -32.169933 -91.5825 -32.226562 -91.53125 C -32.283187 -91.48 -32.330078 -91.397076 -32.330078 -91.347656 C -32.330078 -91.179087 -32.410557 -91.208479 -32.785156 -91.509766 C -33.253767 -91.886671 -33.395864 -91.961444 -33.634766 -91.964844 C -34.019332 -91.97015 -34.30814 -91.742635 -34.441406 -91.332031 C -34.505436 -91.134766 -34.490859 -90.509743 -34.417969 -90.333984 C -34.389959 -90.266484 -34.407091 -90.246094 -34.488281 -90.246094 C -34.546502 -90.246094 -34.683601 -90.165216 -34.792969 -90.066406 C -35.176927 -89.719523 -35.225135 -89.10968 -34.921875 -88.447266 C -34.749441 -88.07063 -34.504674 -87.780029 -34.044922 -87.408203 C -33.835494 -87.238834 -33.380266 -86.830084 -33.033203 -86.498047 C -32.686136 -86.16601 -32.19925 -85.750574 -31.951172 -85.576172 C -31.654528 -85.367626 -31.374648 -85.113662 -31.134766 -84.832031 C -30.934159 -84.59651 -30.769531 -84.384778 -30.769531 -84.361328 C -30.769531 -84.28366 -29.565607 -82.784086 -29.175781 -82.376953 C -28.74344 -81.925413 -27.485638 -80.060709 -27.423828 -79.779297 C -27.302643 -79.227548 -27.546281 -77.769531 -27.759766 -77.769531 C -27.856547 -77.769531 -28.756725 -78.266125 -29.107422 -78.513672 C -29.580621 -78.847695 -30.170016 -79.344143 -30.865234 -79.994141 C -32.021543 -81.075247 -33.257546 -81.635816 -34.507812 -81.648438 C -35.095101 -81.654359 -35.302751 -81.586487 -35.587891 -81.291016 C -35.921391 -80.945434 -36.024738 -80.719077 -36.023438 -80.333984 C -36.021926 -79.864063 -35.84387 -79.551604 -35.419922 -79.275391 C -35.245644 -79.161842 -35.073302 -79.035401 -35.039062 -78.994141 C -35.004821 -78.95288 -34.887053 -78.871423 -34.775391 -78.814453 C -34.502949 -78.675465 -33.960614 -78.243173 -33.421875 -77.734375 C -33.178578 -77.504593 -32.845571 -77.226558 -32.681641 -77.115234 C -32.043814 -76.682098 -30.572799 -75.398358 -29.914062 -74.701172 C -29.161741 -73.90494 -28.818698 -73.63401 -28.197266 -73.345703 C -27.833816 -73.177083 -26.308273 -72.375392 -25.287109 -71.816406 C -24.859159 -71.582143 -24.155762 -71.35225 -23.652344 -71.28125 C -23.430984 -71.250033 -23.126447 -71.202191 -22.976562 -71.175781 C -22.826683 -71.149381 -22.540447 -71.128906 -22.339844 -71.128906 C -22.139241 -71.128906 -21.966231 -71.107371 -21.957031 -71.082031 C -21.947808 -71.056708 -21.710773 -70.979286 -21.429688 -70.910156 C -21.058812 -70.818947 -20.720842 -70.685565 -20.197266 -70.421875 C -19.800443 -70.222021 -19.135753 -69.922517 -18.720703 -69.757812 C -17.778285 -69.383826 -16.53998 -68.828022 -15.978516 -68.525391 C -15.443501 -68.237015 -14.577277 -67.698984 -12.5625 -66.40625 C -11.693599 -65.84874 -10.940662 -65.392578 -10.888672 -65.392578 C -10.766072 -65.392578 -10.713174 -65.531561 -10.802734 -65.619141 C -10.866048 -65.681056 -14.076053 -67.738354 -15.136719 -68.396484 C -15.919299 -68.882064 -17.056346 -69.41677 -18.626953 -70.039062 C -19.011896 -70.191586 -19.654004 -70.484695 -20.054688 -70.689453 C -20.967554 -71.155946 -21.460587 -71.283991 -23.248047 -71.527344 C -24.147488 -71.6498 -24.627601 -71.818106 -25.689453 -72.382812 C -26.146004 -72.625608 -27.016266 -73.082135 -27.625 -73.396484 L -28.732422 -73.966797 L -29.613281 -74.851562 C -30.45572 -75.697221 -31.697151 -76.784012 -32.371094 -77.265625 C -32.885126 -77.632961 -33.938153 -78.633246 -33.939453 -78.755859 C -33.941109 -78.933758 -33.812576 -79.2376 -33.59375 -79.576172 C -33.443156 -79.80915 -33.590272 -79.906522 -33.601562 -80.042969 C -33.612586 -79.972975 -33.68692 -79.811205 -33.792969 -79.648438 C -33.906412 -79.474317 -34.037314 -79.207492 -34.083984 -79.056641 L -34.169922 -78.783203 L -34.720703 -79.179688 C -35.50553 -79.743702 -35.650391 -79.881251 -35.650391 -80.074219 C -35.650391 -80.184738 -35.597819 -80.291565 -35.476562 -80.425781 C -35.178373 -80.755841 -34.654899 -80.834183 -34.212891 -80.613281 C -33.873225 -80.443522 -33.613335 -80.211274 -33.601562 -80.082031 C -33.621575 -80.189278 -33.481856 -80.340098 -33.607422 -80.457031 C -33.940357 -80.767075 -34.254428 -80.907348 -34.671875 -80.929688 C -35.066683 -80.950826 -35.38162 -80.841041 -35.623047 -80.599609 C -35.777872 -80.444795 -35.782533 -80.47543 -35.648438 -80.738281 C -35.380203 -81.264045 -34.585013 -81.465794 -33.652344 -81.242188 C -32.671477 -81.00703 -32.002207 -80.632958 -31.1875 -79.869141 C -30.176671 -78.921459 -28.97542 -78.005721 -28.304688 -77.669922 C -28.097168 -77.566028 -27.729476 -77.406323 -27.486328 -77.314453 C -27.240142 -77.221438 -26.955425 -77.070199 -26.84375 -76.974609 C -26.638153 -76.798629 -26.518894 -76.78919 -26.458984 -76.945312 C -26.414381 -77.06155 -26.733203 -77.327403 -27.126953 -77.5 L -27.433594 -77.632812 L -27.347656 -77.865234 C -27.299745 -77.99238 -27.219862 -78.265663 -27.169922 -78.472656 L -27.078125 -78.849609 L -26.863281 -78.382812 C -26.6419 -77.90446 -26.540481 -77.801316 -26.414062 -77.927734 C -26.350816 -77.99098 -26.388089 -78.096913 -26.701172 -78.751953 C -26.898809 -79.16545 -27.071687 -79.594401 -27.085938 -79.705078 C -27.11837 -79.956704 -27.194906 -80.111072 -27.523438 -80.585938 C -27.667013 -80.793459 -27.934639 -81.201836 -28.119141 -81.494141 C -28.303644 -81.786445 -28.721476 -82.331158 -29.046875 -82.703125 C -29.74214 -83.497889 -30.298292 -84.186008 -30.667969 -84.710938 C -31.037924 -85.236259 -31.112496 -85.311792 -31.851562 -85.882812 C -32.211272 -86.160732 -32.709956 -86.595089 -32.958984 -86.847656 C -33.208012 -87.100219 -33.570342 -87.43282 -33.765625 -87.587891 C -34.545564 -88.207225 -34.796369 -88.632356 -34.792969 -89.330078 C -34.790969 -89.714233 -34.789578 -89.715832 -34.710938 -89.566406 C -34.421779 -89.016946 -33.65909 -88.760802 -33.304688 -89.09375 C -33.15762 -89.231908 -33.153384 -89.229096 -32.611328 -88.791016 C -31.855501 -88.180177 -31.224195 -87.774584 -30.345703 -87.335938 C -29.99578 -87.161212 -29.74026 -86.813482 -29.513672 -86.669922 C -29.557156 -86.703346 -29.6062 -86.69542 -29.734375 -86.597656 C -29.833559 -86.522004 -29.914062 -86.428845 -29.914062 -86.390625 C -29.914063 -86.276806 -29.776877 -86.311291 -29.601562 -86.46875 C -29.48453 -86.573858 -29.471073 -86.619048 -29.503906 -86.662109 C -29.028325 -86.359338 -28.668762 -86.216205 -27.751953 -85.261719 C -26.621741 -84.085069 -26.265995 -83.787307 -25.507812 -83.375 C -25.10372 -83.155262 -24.862103 -82.979436 -24.585938 -82.708984 C -24.202789 -82.33376 -24.067239 -82.281881 -24.037109 -82.494141 C -24.009796 -82.686553 -24.555536 -83.163356 -25.339844 -83.630859 C -26.22627 -84.159223 -26.681261 -84.546734 -27.802734 -85.742188 C -28.314626 -86.287851 -28.869133 -86.831485 -29.035156 -86.949219 C -29.201175 -87.066954 -29.697906 -87.35045 -30.140625 -87.580078 C -31.456405 -88.262542 -31.722032 -88.440913 -33.160156 -89.617188 C -33.465236 -89.86672 -33.797365 -90.12383 -33.900391 -90.1875 C -34.040932 -90.274361 -34.101821 -90.355862 -34.144531 -90.513672 C -34.216406 -90.779271 -34.176992 -91.308344 -34.074219 -91.455078 C -33.996019 -91.566723 -33.997416 -91.565949 -33.916016 -91.371094 C -33.813667 -91.126085 -33.620533 -90.920769 -33.361328 -90.78125 C -33.197907 -90.693291 -33.07425 -90.673974 -32.705078 -90.673828 L -32.25 -90.673828 L -31.824219 -90.345703 C -31.59002 -90.165181 -31.319496 -89.959312 -31.222656 -89.888672 C -30.908701 -89.659669 -29.508365 -88.858724 -28.669922 -88.429688 C -28.220288 -88.199606 -27.851564 -87.996486 -27.851562 -87.978516 C -27.851562 -87.96052 -27.941734 -87.906592 -28.050781 -87.857422 C -28.159832 -87.808244 -28.260371 -87.736336 -28.275391 -87.697266 C -28.324646 -87.568854 -28.167919 -87.570555 -27.910156 -87.701172 L -27.658203 -87.828125 L -26.570312 -86.773438 C -25.157268 -85.400755 -24.878681 -85.166969 -23.945312 -84.576172 C -23.444458 -84.259148 -23.048719 -83.967063 -22.839844 -83.757812 C -22.574866 -83.492413 -22.499431 -83.441625 -22.431641 -83.484375 C -22.282797 -83.578263 -22.306081 -83.649133 -22.578125 -83.9375 C -22.819543 -84.193409 -23.337038 -84.557395 -24.392578 -85.214844 C -24.651265 -85.375971 -25.140293 -85.81871 -26.089844 -86.751953 C -26.823648 -87.473148 -27.525877 -88.132217 -27.650391 -88.216797 C -27.774905 -88.301377 -28.148428 -88.507493 -28.480469 -88.673828 C -29.868088 -89.368973 -30.908702 -89.998065 -31.642578 -90.587891 C -31.837977 -90.744939 -32.02723 -90.896138 -32.0625 -90.923828 C -32.1141 -90.964335 -32.110908 -91.018695 -32.048828 -91.197266 C -32.006414 -91.319255 -31.948982 -91.463298 -31.919922 -91.517578 C -31.871082 -91.608838 -31.857498 -91.601922 -31.75 -91.421875 C -31.61248 -91.191541 -31.396816 -91.021913 -31.113281 -90.921875 C -30.82794 -90.821198 -30.721416 -90.829759 -30.445312 -90.976562 C -30.214404 -91.099334 -30.199557 -91.101981 -30.072266 -91.019531 C -29.999511 -90.972408 -29.463877 -90.60205 -28.882812 -90.197266 C -27.584862 -89.293092 -27.597857 -89.299921 -26.898438 -88.988281 C -26.035943 -88.60398 -25.844036 -88.44264 -24.623047 -87.070312 C -23.417761 -85.715632 -23.194528 -85.510544 -22.244141 -84.873047 C -21.829201 -84.594716 -21.431541 -84.273029 -21.148438 -83.990234 C -20.700972 -83.543261 -20.556641 -83.477642 -20.556641 -83.716797 C -20.556641 -83.896793 -21.287405 -84.566161 -22.146484 -85.173828 C -23.098086 -85.846941 -23.318786 -86.048844 -24.191406 -87.048828 C -25.563832 -88.621575 -25.867624 -88.879508 -26.900391 -89.34375 C -27.554472 -89.63777 -27.766176 -89.780609 -27.886719 -90.009766 C -27.988419 -90.203098 -28.001253 -90.768449 -27.908203 -90.939453 L -27.845703 -91.056641 L -27.705078 -90.865234 C -27.422429 -90.479029 -27.132139 -90.328889 -26.722656 -90.355469 C -26.473256 -90.371663 -26.454852 -90.36119 -26.089844 -90.0625 C -25.882946 -89.893199 -25.499192 -89.558306 -25.236328 -89.318359 C -24.973469 -89.078417 -24.575975 -88.76147 -24.353516 -88.613281 C -23.889017 -88.303858 -23.693548 -88.101067 -23.322266 -87.546875 C -23.17634 -87.329063 -22.700761 -86.676768 -22.265625 -86.095703 C -21.624161 -85.23911 -21.356012 -84.927887 -20.851562 -84.455078 C -20.509374 -84.134352 -20.171349 -83.783938 -20.099609 -83.675781 C -19.817691 -83.250759 -19.160214 -82.021835 -18.042969 -79.832031 C -17.400632 -78.573051 -16.751763 -77.357675 -16.601562 -77.130859 C -16.121644 -76.406129 -15.5733 -76.036793 -14.595703 -75.783203 C -14.319002 -75.711428 -13.957039 -75.583477 -13.791016 -75.498047 C -12.472561 -74.819601 -11.858799 -74.569988 -10.345703 -74.099609 C -9.4125805 -73.809538 -9.11971 -73.75118 -9.0625 -73.84375 C -8.985893 -73.967703 -9.2287905 -74.09391 -9.9921875 -74.324219 C -11.356191 -74.735713 -12.308196 -75.095336 -13.130859 -75.509766 C -13.647587 -75.770075 -14.120302 -75.967306 -14.464844 -76.066406 C -15.22867 -76.286096 -15.592795 -76.477559 -15.978516 -76.863281 C -16.378999 -77.263763 -16.504569 -77.47782 -17.791016 -79.982422 C -19.11589 -82.56185 -19.564364 -83.404445 -19.835938 -83.816406 C -19.96822 -84.017064 -20.30427 -84.381446 -20.667969 -84.720703 C -21.152192 -85.172384 -21.429928 -85.492739 -22.013672 -86.271484 C -22.41813 -86.811044 -22.888146 -87.45605 -23.058594 -87.705078 C -23.52106 -88.380767 -23.678461 -88.542913 -24.216797 -88.902344 C -24.486839 -89.082644 -24.934237 -89.440039 -25.210938 -89.695312 C -25.797436 -90.236401 -27.053727 -91.25142 -27.285156 -91.371094 C -27.630157 -91.549502 -28.000871 -91.42622 -28.15625 -91.083984 C -28.22146 -90.940344 -28.25305 -90.758687 -28.253906 -90.509766 C -28.254506 -90.309159 -28.267843 -90.144531 -28.283203 -90.144531 C -28.298554 -90.144531 -28.446749 -90.241781 -28.613281 -90.359375 C -28.779809 -90.476973 -29.037546 -90.651207 -29.185547 -90.748047 C -29.333548 -90.844893 -29.529014 -90.988236 -29.621094 -91.066406 C -29.824491 -91.239067 -30.940901 -91.959722 -31.136719 -92.044922 z M -33.601562 -80.082031 C -33.599478 -80.070862 -33.602508 -80.054384 -33.601562 -80.042969 C -33.600794 -80.047848 -33.587891 -80.066513 -33.587891 -80.070312 C -33.587891 -80.073082 -33.601301 -80.079158 -33.601562 -80.082031 z M -31.652344 -91.751953 C -31.560561 -91.900463 -30.941277 -91.671009 -30.558594 -91.347656 L -30.392578 -91.208984 L -30.580078 -91.128906 C -30.826607 -91.024375 -30.855938 -91.027122 -31.166016 -91.181641 C -31.435774 -91.316066 -31.717424 -91.64666 -31.652344 -91.751953 z M -33.789062 -91.652344 C -33.789062 -91.743856 -33.53302 -91.708284 -33.369141 -91.59375 C -33.0502 -91.370855 -32.53125 -90.937981 -32.53125 -90.894531 C -32.53125 -90.825542 -32.935243 -90.848067 -33.158203 -90.929688 C -33.47224 -91.044652 -33.789062 -91.407061 -33.789062 -91.652344 z M -27.601562 -91.101562 C -27.601563 -91.216263 -27.411606 -91.133018 -27.089844 -90.873047 C -26.900013 -90.719671 -26.746094 -90.582984 -26.746094 -90.570312 C -26.746094 -90.524265 -26.975041 -90.552695 -27.123047 -90.617188 C -27.276735 -90.684157 -27.601562 -91.012253 -27.601562 -91.101562 z M -34.533203 -89.787109 C -34.502483 -90.050966 -34.145177 -89.988257 -33.666016 -89.634766 L -33.316406 -89.376953 L -33.455078 -89.257812 C -33.53112 -89.192408 -33.653966 -89.140197 -33.728516 -89.140625 C -34.084468 -89.143527 -34.563373 -89.528123 -34.533203 -89.787109 z M -32.283203 -78.5 C -32.399341 -78.57178 -32.732422 -78.105297 -32.732422 -77.871094 C -32.732422 -77.693751 -32.589074 -77.759479 -32.490234 -77.982422 C -32.438094 -78.10002 -32.3585 -78.227665 -32.3125 -78.265625 C -32.21726 -78.344239 -32.204333 -78.45126 -32.283203 -78.5 z M -31.925781 -78.193359 C -32.035761 -78.325872 -32.128906 -78.227111 -32.128906 -77.976562 C -32.128906 -77.84733 -32.160642 -77.694579 -32.201172 -77.636719 C -32.241812 -77.578865 -32.261601 -77.515507 -32.244141 -77.498047 C -32.168455 -77.422361 -32.036468 -77.477878 -31.986328 -77.605469 C -31.889768 -77.851192 -31.862321 -78.116889 -31.925781 -78.193359 z "
           d="m -31.136719,-92.044922 c -0.190413,-0.08284 -0.513028,-0.07749 -0.685547,0.01172 -0.07791,0.04028 -0.176763,0.147634 -0.220703,0.240234 -0.04395,0.09261 -0.126964,0.210469 -0.183593,0.261719 -0.05662,0.05125 -0.103516,0.134174 -0.103516,0.183594 0,0.168569 -0.08048,0.139177 -0.455078,-0.16211 -0.468611,-0.376905 -0.610708,-0.451678 -0.84961,-0.455078 -0.384566,-0.0053 -0.673374,0.222209 -0.80664,0.632813 -0.06403,0.197265 -0.04945,0.822288 0.02344,0.998047 0.02801,0.0675 0.01088,0.08789 -0.07031,0.08789 -0.05822,0 -0.19532,0.08088 -0.304688,0.179688 -0.383958,0.346883 -0.432166,0.956726 -0.128906,1.61914 0.172434,0.376636 0.417201,0.667237 0.876953,1.039063 0.209428,0.169369 0.664656,0.578119 1.011719,0.910156 0.347067,0.332037 0.833953,0.747473 1.082031,0.921875 0.296644,0.208546 0.576524,0.46251 0.816406,0.744141 0.200607,0.235521 0.365235,0.447253 0.365235,0.470703 0,0.07767 1.203924,1.577242 1.59375,1.984375 0.432341,0.45154 1.690143,2.316244 1.751953,2.597656 0.121185,0.551749 -0.122453,2.009766 -0.335938,2.009766 -0.09678,0 -0.996959,-0.496594 -1.347656,-0.744141 -0.473199,-0.334023 -1.062594,-0.830471 -1.757812,-1.480469 -1.156309,-1.081106 -2.392312,-1.641675 -3.642578,-1.654297 -0.587289,-0.0059 -0.794939,0.06195 -1.080079,0.357422 -0.3335,0.345582 -0.436847,0.571939 -0.435547,0.957032 0.0015,0.469921 0.179568,0.78238 0.603516,1.058593 0.174278,0.113549 0.34662,0.23999 0.38086,0.28125 0.03424,0.04126 0.152009,0.122718 0.263671,0.179688 0.272442,0.138988 0.814777,0.57128 1.353516,1.080078 0.243297,0.229782 0.576304,0.507817 0.740234,0.619141 0.637827,0.433136 2.108842,1.716876 2.767579,2.414062 0.752321,0.796232 1.095364,1.067162 1.716796,1.355469 0.36345,0.16862 1.888993,0.970311 2.910157,1.529297 0.42795,0.234263 1.131347,0.464156 1.634765,0.535156 0.22136,0.03122 0.525897,0.07906 0.675782,0.105469 0.149879,0.0264 0.436115,0.04687 0.636718,0.04687 0.200603,0 0.373613,0.02154 0.382813,0.04687 0.0092,0.02532 0.246258,0.102745 0.527343,0.171875 0.370876,0.09121 0.708846,0.224591 1.232422,0.488281 0.396823,0.199854 1.061513,0.499358 1.476563,0.664063 0.942418,0.373986 2.180723,0.92979 2.742187,1.232421 0.535015,0.288376 1.401239,0.826407 3.416016,2.119141 0.868901,0.55751 1.621838,1.013672 1.673828,1.013672 0.1226,0 0.175498,-0.138983 0.08594,-0.226563 -0.06331,-0.06191 -3.273319,-2.119213 -4.333985,-2.777343 -0.78258,-0.48558 -1.919627,-1.020286 -3.490234,-1.642578 -0.384943,-0.152524 -1.027051,-0.445633 -1.427735,-0.650391 -0.912866,-0.466493 -1.405899,-0.594538 -3.193359,-0.837891 -0.899441,-0.122456 -1.379554,-0.290762 -2.441406,-0.855468 -0.456551,-0.242796 -1.326813,-0.699323 -1.935547,-1.013672 l -1.107422,-0.570313 -0.880859,-0.884765 c -0.842439,-0.845659 -2.08387,-1.93245 -2.757813,-2.414063 -0.514032,-0.367336 -1.567059,-1.367621 -1.568359,-1.490234 -0.0017,-0.177899 0.126877,-0.481741 0.345703,-0.820313 0.150594,-0.232978 0.0035,-0.33035 -0.0078,-0.466797 -0.01102,0.06999 -0.08536,0.231764 -0.191407,0.394531 -0.113443,0.174121 -0.244345,0.440946 -0.291015,0.591797 l -0.08594,0.273438 -0.550781,-0.396485 c -0.784827,-0.564014 -0.929688,-0.701563 -0.929688,-0.894531 0,-0.110519 0.05257,-0.217346 0.173829,-0.351562 0.298189,-0.33006 0.821663,-0.408402 1.263671,-0.1875 0.339666,0.169759 0.599556,0.402007 0.611329,0.53125 -0.02001,-0.107247 0.119706,-0.258067 -0.0059,-0.375 -0.332935,-0.310044 -0.647006,-0.450317 -1.064453,-0.472657 -0.394808,-0.02114 -0.709745,0.08865 -0.951172,0.330079 -0.154825,0.154814 -0.159486,0.124179 -0.02539,-0.138672 0.268235,-0.525764 1.063425,-0.727513 1.996094,-0.503907 0.980867,0.235158 1.650137,0.60923 2.464844,1.373047 1.010829,0.947682 2.21208,1.86342 2.882812,2.199219 0.20752,0.103894 0.575212,0.263599 0.81836,0.355469 0.246186,0.09301 0.530903,0.244254 0.642578,0.339844 0.205597,0.17598 0.324856,0.185419 0.384766,0.0293 0.0446,-0.116238 -0.274219,-0.382091 -0.667969,-0.554688 l -0.306641,-0.132812 0.08594,-0.232422 c 0.04791,-0.127146 0.127794,-0.400429 0.177734,-0.607422 l 0.0918,-0.376953 0.214844,0.466797 c 0.221381,0.478352 0.3228,0.581496 0.449219,0.455078 0.06325,-0.06325 0.02597,-0.169179 -0.28711,-0.824219 -0.197637,-0.413497 -0.370515,-0.842448 -0.384766,-0.953125 -0.03243,-0.251626 -0.108968,-0.405994 -0.4375,-0.88086 -0.143575,-0.207521 -0.411201,-0.615898 -0.595703,-0.908203 -0.184503,-0.292304 -0.602335,-0.837017 -0.927734,-1.208984 -0.695265,-0.794764 -1.251417,-1.482883 -1.621094,-2.007813 -0.369955,-0.525321 -0.444527,-0.600854 -1.183593,-1.171874 -0.35971,-0.27792 -0.858394,-0.712277 -1.107422,-0.964844 -0.249028,-0.252563 -0.611358,-0.585164 -0.806641,-0.740235 -0.779939,-0.619334 -1.030744,-1.044465 -1.027344,-1.742187 0.002,-0.384155 0.0034,-0.385754 0.08203,-0.236328 0.289159,0.54946 1.051848,0.805604 1.40625,0.472656 0.147068,-0.138158 0.151304,-0.135346 0.69336,0.302734 0.755827,0.610839 1.387133,1.016432 2.265625,1.455078 0.349923,0.174726 0.605443,0.522456 0.832031,0.666016 -0.04348,-0.03342 -0.09253,-0.0255 -0.220703,0.07227 -0.09918,0.07565 -0.179687,0.168811 -0.179687,0.207031 -10e-7,0.113819 0.137185,0.07933 0.3125,-0.07813 0.117032,-0.105108 0.130489,-0.150298 0.09766,-0.193359 0.475581,0.302771 0.835144,0.445904 1.751953,1.40039 1.130212,1.17665 1.485958,1.474412 2.244141,1.886719 0.404092,0.219738 0.645709,0.395564 0.921874,0.666016 0.383149,0.375224 0.518699,0.427103 0.548829,0.214843 0.02731,-0.192412 -0.518427,-0.669215 -1.302735,-1.136718 -0.886426,-0.528364 -1.341417,-0.915875 -2.46289,-2.111329 -0.511892,-0.545663 -1.066399,-1.089297 -1.232422,-1.207031 -0.166019,-0.117735 -0.66275,-0.401231 -1.105469,-0.630859 -1.31578,-0.682464 -1.581407,-0.860835 -3.019531,-2.03711 -0.30508,-0.249532 -0.637209,-0.506642 -0.740235,-0.570312 -0.140541,-0.08686 -0.20143,-0.168362 -0.24414,-0.326172 -0.07187,-0.265599 -0.03246,-0.794672 0.07031,-0.941406 0.0782,-0.111645 0.0768,-0.110871 0.158203,0.08398 0.102349,0.245009 0.295483,0.450325 0.554688,0.589844 0.163421,0.08796 0.287078,0.107276 0.65625,0.107422 H -32.25 l 0.425781,0.328125 c 0.234199,0.180522 0.504723,0.386391 0.601563,0.457031 0.313955,0.229003 1.714291,1.029948 2.552734,1.458984 0.449634,0.230082 0.818358,0.433202 0.81836,0.451172 0,0.018 -0.09017,0.07192 -0.199219,0.121094 -0.109051,0.04918 -0.20959,0.121086 -0.22461,0.160156 -0.04926,0.128412 0.107472,0.126711 0.365235,-0.0039 l 0.251953,-0.126953 1.087891,1.054687 c 1.413044,1.372683 1.691631,1.606469 2.625,2.197266 0.500854,0.317024 0.896593,0.609109 1.105468,0.81836 0.264978,0.265399 0.340413,0.316187 0.408203,0.273437 0.148844,-0.09389 0.12556,-0.164758 -0.146484,-0.453125 -0.241418,-0.255909 -0.758913,-0.619895 -1.814453,-1.277344 -0.258687,-0.161127 -0.747715,-0.603866 -1.697266,-1.537109 -0.733804,-0.721195 -1.436033,-1.380264 -1.560547,-1.464844 -0.124514,-0.08458 -0.498037,-0.290696 -0.830078,-0.457031 -1.387619,-0.695145 -2.428233,-1.324237 -3.162109,-1.914063 -0.195399,-0.157048 -0.384652,-0.308247 -0.419922,-0.335937 -0.0516,-0.04051 -0.04841,-0.09487 0.01367,-0.273438 0.04241,-0.121989 0.09985,-0.266032 0.128906,-0.320312 0.04884,-0.09126 0.06242,-0.08434 0.169922,0.0957 0.13752,0.230334 0.353184,0.399962 0.636719,0.5 0.285341,0.100677 0.391865,0.09212 0.667969,-0.05469 0.230908,-0.122772 0.245755,-0.125419 0.373046,-0.04297 0.07276,0.04712 0.608389,0.417481 1.189454,0.822265 1.29795,0.904174 1.284955,0.897345 1.984374,1.208985 0.862495,0.384301 1.054402,0.545641 2.275391,1.917969 1.205286,1.35468 1.428519,1.559768 2.378906,2.197265 0.41494,0.278331 0.8126,0.600018 1.095703,0.882813 0.447466,0.446973 0.591797,0.512592 0.591797,0.273437 0,-0.179996 -0.730764,-0.849364 -1.589843,-1.457031 -0.951602,-0.673113 -1.172302,-0.875016 -2.044922,-1.875 -1.372426,-1.572747 -1.676218,-1.83068 -2.708985,-2.294922 -0.654081,-0.29402 -0.865785,-0.436859 -0.986328,-0.666016 -0.1017,-0.193332 -0.114534,-0.758683 -0.02148,-0.929687 l 0.0625,-0.117188 0.140625,0.191407 c 0.282649,0.386205 0.572939,0.536345 0.982422,0.509765 0.2494,-0.01619 0.267804,-0.0057 0.632812,0.292969 0.206898,0.169301 0.590652,0.504194 0.853516,0.744141 0.262859,0.239942 0.660353,0.556889 0.882812,0.705078 0.464499,0.309423 0.659968,0.512214 1.03125,1.066406 0.145926,0.217812 0.621505,0.870107 1.056641,1.451172 0.641464,0.856593 0.909613,1.167816 1.414063,1.640625 0.342188,0.320726 0.680213,0.67114 0.751953,0.779297 0.281918,0.425022 0.939395,1.653946 2.05664,3.84375 0.642337,1.25898 1.291206,2.474356 1.441407,2.701172 0.479918,0.72473 1.028262,1.094066 2.005859,1.347656 0.276701,0.07178 0.638664,0.199726 0.804687,0.285156 1.318455,0.678446 1.932217,0.928059 3.445313,1.398438 0.9331225,0.290071 1.225993,0.348429 1.283203,0.255859 0.076607,-0.123953 -0.1662905,-0.25016 -0.9296875,-0.480469 -1.3640035,-0.411494 -2.3160085,-0.771117 -3.1386715,-1.185547 -0.516728,-0.260309 -0.989443,-0.45754 -1.333985,-0.55664 -0.763826,-0.21969 -1.127951,-0.411153 -1.513672,-0.796875 -0.400483,-0.400482 -0.526053,-0.614539 -1.8125,-3.119141 -1.324874,-2.579428 -1.773348,-3.422023 -2.044922,-3.833984 -0.132282,-0.200658 -0.468332,-0.56504 -0.832031,-0.904297 -0.484223,-0.451681 -0.761959,-0.772036 -1.345703,-1.550781 -0.404458,-0.53956 -0.874474,-1.184566 -1.044922,-1.433594 -0.462466,-0.675689 -0.619867,-0.837835 -1.158203,-1.197266 -0.270042,-0.1803 -0.71744,-0.537695 -0.994141,-0.792968 -0.586498,-0.541089 -1.842789,-1.556108 -2.074218,-1.675782 -0.345001,-0.178408 -0.715715,-0.05513 -0.871094,0.28711 -0.06521,0.14364 -0.0968,0.325297 -0.09766,0.574218 -6e-4,0.200607 -0.01394,0.365235 -0.0293,0.365235 -0.01535,0 -0.163546,-0.09725 -0.330078,-0.214844 -0.166528,-0.117598 -0.424265,-0.291832 -0.572266,-0.388672 -0.148001,-0.09685 -0.343467,-0.240189 -0.435547,-0.318359 -0.203397,-0.172661 -1.319807,-0.893316 -1.515625,-0.978516 z m -2.464843,11.962891 c 0.0021,0.01117 -9.46e-4,0.02765 0,0.03906 7.68e-4,-0.0049 0.01367,-0.02354 0.01367,-0.02734 0,-0.0028 -0.01341,-0.0088 -0.01367,-0.01172 z m 1.949218,-11.669922 c 0.09178,-0.14851 0.711067,0.08094 1.09375,0.404297 l 0.166016,0.138672 -0.1875,0.08008 c -0.246529,0.104531 -0.27586,0.101784 -0.585938,-0.05273 -0.269758,-0.134425 -0.551408,-0.465019 -0.486328,-0.570312 z m -2.136718,0.09961 c 0,-0.09151 0.256042,-0.05594 0.419921,0.05859 0.318941,0.222895 0.837891,0.655769 0.837891,0.699219 0,0.06899 -0.403993,0.04646 -0.626953,-0.03516 -0.314037,-0.114964 -0.630859,-0.477373 -0.630859,-0.722656 z m 6.1875,0.550782 c -10e-7,-0.114701 0.189956,-0.03146 0.511718,0.228515 0.189831,0.153376 0.34375,0.290063 0.34375,0.302735 0,0.04605 -0.228947,0.01762 -0.376953,-0.04688 -0.153688,-0.06697 -0.478515,-0.395065 -0.478515,-0.484374 z m -6.931641,1.314453 c 0.03072,-0.263857 0.388026,-0.201148 0.867187,0.152343 l 0.34961,0.257813 -0.138672,0.119141 c -0.07604,0.0654 -0.198888,0.117615 -0.273438,0.117187 -0.355952,-0.0029 -0.834857,-0.387498 -0.804687,-0.646484 z m 2.25,11.287109 c -0.116138,-0.07178 -0.449219,0.394703 -0.449219,0.628906 0,0.177343 0.143348,0.111615 0.242188,-0.111328 0.05214,-0.117598 0.131734,-0.245243 0.177734,-0.283203 0.09524,-0.07861 0.108167,-0.185635 0.0293,-0.234375 z m 0.357422,0.306641 c -0.10998,-0.132513 -0.203125,-0.03375 -0.203125,0.216797 0,0.129232 -0.03174,0.281983 -0.07227,0.339843 -0.04064,0.05785 -0.06043,0.121212 -0.04297,0.138672 0.07569,0.07569 0.207673,0.02017 0.257813,-0.107422 0.09656,-0.245723 0.124007,-0.51142 0.06055,-0.58789 z" />
      </g>
      <text
         xml:space="preserve"
         style="font-weight:bold;font-size:5.29167px;line-height:1.25;font-family:Arial;-inkscape-font-specification:'Arial Bold';stroke-width:0.264583"
         x="76.835487"
         y="5.621675"
         id="text10244-0-1-9"><tspan
           sodipodi:role="line"
           id="tspan10242-1-9-7"
           style="stroke-width:0.264583"
           x="76.835487"
           y="5.621675">microscope stage</tspan></text>
      <ellipse
         style="fill:#ffffff;fill-opacity:1;fill-rule:evenodd;stroke:#000000;stroke-width:1;stroke-miterlimit:4;stroke-dasharray:none;stroke-opacity:1"
         id="path3438-9-1-6-8"
         cx="97.116341"
         cy="24.797274"
         rx="23.859074"
         ry="10.583333" />
      <ellipse
         style="fill:#ffffff;fill-opacity:1;fill-rule:evenodd;stroke:#000000;stroke-width:1;stroke-miterlimit:4;stroke-dasharray:none;stroke-opacity:1"
         id="path3438-3-82-0"
         cx="97.069771"
         cy="23.769167"
         rx="23.8125"
         ry="10.583333" />
      <g
         id="g30969-3-2-7-6-2"
         transform="translate(95.78264,-154.60329)"
         style="stroke-width:1;stroke-miterlimit:4;stroke-dasharray:none">
        <path
           style="fill:#ffffff;fill-opacity:1;stroke:#000000;stroke-width:1;stroke-linecap:butt;stroke-linejoin:round;stroke-miterlimit:4;stroke-dasharray:none;stroke-opacity:1"
           d="m -8.5557107,172.68736 -2.6458343,10.58334 23.246086,-0.0224 1.889331,-10.56097 z"
           id="path4972-5-4-7-2-4-3"
           sodipodi:nodetypes="ccccc" />
        <path
           style="fill:#ffffff;fill-opacity:1;stroke:#000000;stroke-width:1;stroke-linecap:butt;stroke-linejoin:round;stroke-miterlimit:4;stroke-dasharray:none;stroke-opacity:1"
           d="m -4.9655087,173.22336 -2.318988,9.27595 h 15.855223 l 1.9235627,-9.28278 z"
           id="path4972-1-5-5-9-4-6-3-1"
           sodipodi:nodetypes="ccccc" />
      </g>
      <path
         style="fill:none;stroke:#000000;stroke-width:0.965;stroke-linecap:butt;stroke-linejoin:miter;stroke-miterlimit:4;stroke-dasharray:none;stroke-opacity:1"
         d="M 120.25405,23.93224 H 116.2853"
         id="path6836-0" />
      <text
         xml:space="preserve"
         style="font-style:normal;font-variant:normal;font-weight:bold;font-stretch:normal;font-size:4.93889px;line-height:1.25;font-family:Arial;-inkscape-font-specification:'Arial, Bold';font-variant-ligatures:normal;font-variant-caps:normal;font-variant-numeric:normal;font-variant-east-asian:normal;stroke-width:0.264583"
         x="111.61335"
         y="25.387606"
         id="text7713-1"><tspan
           sodipodi:role="line"
           id="tspan8143-2"
           x="111.61335"
           y="25.387606">0째</tspan></text>
      <path
         style="fill:none;stroke:#000000;stroke-width:0.965;stroke-linecap:butt;stroke-linejoin:miter;stroke-miterlimit:4;stroke-dasharray:none;stroke-opacity:1"
         d="M 77.39156,23.66767 H 73.42281"
         id="path6836-9-6" />
      <text
         xml:space="preserve"
         style="font-style:normal;font-variant:normal;font-weight:bold;font-stretch:normal;font-size:4.93889px;line-height:1.25;font-family:Arial;-inkscape-font-specification:'Arial, Bold';font-variant-ligatures:normal;font-variant-caps:normal;font-variant-numeric:normal;font-variant-east-asian:normal;stroke-width:0.264583"
         x="61.841743"
         y="24.897158"
         id="text7713-4-48"><tspan
           sodipodi:role="line"
           id="tspan9814-5"
           x="61.841743"
           y="24.897158">180째</tspan></text>
      <path
         style="fill:none;stroke:#000000;stroke-width:0.565;stroke-linecap:butt;stroke-linejoin:miter;stroke-miterlimit:4;stroke-dasharray:none;stroke-opacity:1;marker-start:url(#Arrow2Mstart-5)"
         d="m 121.93758,24.34964 5.63544,-0.11228"
         id="path27138-5"
         sodipodi:nodetypes="cc" />
      <ellipse
         style="fill:#ffffff;fill-opacity:1;fill-rule:evenodd;stroke:#000000;stroke-width:1;stroke-miterlimit:4;stroke-dasharray:none;stroke-opacity:1"
         id="path3438-9-1-6-8-1"
         cx="96.125374"
         cy="62.620911"
         rx="23.859074"
         ry="10.583333" />
      <ellipse
         style="fill:#ffffff;fill-opacity:1;fill-rule:evenodd;stroke:#000000;stroke-width:1;stroke-miterlimit:4;stroke-dasharray:none;stroke-opacity:1"
         id="path3438-3-82-0-5"
         cx="96.078804"
         cy="61.592804"
         rx="23.8125"
         ry="10.583333" />
      <g
         id="g30969-3-2-7-6-2-2"
         transform="translate(94.79169,-116.7797)"
         style="stroke-width:1;stroke-miterlimit:4;stroke-dasharray:none">
        <path
           style="fill:#ffffff;fill-opacity:1;stroke:#000000;stroke-width:1;stroke-linecap:butt;stroke-linejoin:round;stroke-miterlimit:4;stroke-dasharray:none;stroke-opacity:1"
           d="m -8.5557107,172.68736 -2.6458343,10.58334 23.246086,-0.0224 1.889331,-10.56097 z"
           id="path4972-5-4-7-2-4-3-6"
           sodipodi:nodetypes="ccccc" />
        <path
           style="fill:#ffffff;fill-opacity:1;stroke:#000000;stroke-width:1;stroke-linecap:butt;stroke-linejoin:round;stroke-miterlimit:4;stroke-dasharray:none;stroke-opacity:1"
           d="m -4.9655087,173.22336 -2.318988,9.27595 h 15.855223 l 1.9235627,-9.28278 z"
           id="path4972-1-5-5-9-4-6-3-1-9"
           sodipodi:nodetypes="ccccc" />
      </g>
      <path
         style="fill:none;stroke:#000000;stroke-width:0.965;stroke-linecap:butt;stroke-linejoin:miter;stroke-miterlimit:4;stroke-dasharray:none;stroke-opacity:1"
         d="m 119.2631,61.75584 h -3.96875"
         id="path6836-0-4" />
      <text
         xml:space="preserve"
         style="font-style:normal;font-variant:normal;font-weight:bold;font-stretch:normal;font-size:4.93889px;line-height:1.25;font-family:Arial;-inkscape-font-specification:'Arial, Bold';font-variant-ligatures:normal;font-variant-caps:normal;font-variant-numeric:normal;font-variant-east-asian:normal;stroke-width:0.264583"
         x="111.26304"
         y="59.759308"
         id="text7713-1-4"><tspan
           sodipodi:role="line"
           id="tspan8143-2-6"
           x="111.26304"
           y="59.759308">0째</tspan></text>
      <path
         style="fill:none;stroke:#000000;stroke-width:0.965;stroke-linecap:butt;stroke-linejoin:miter;stroke-miterlimit:4;stroke-dasharray:none;stroke-opacity:1"
         d="M 76.40061,61.49126 H 72.43186"
         id="path6836-9-6-0" />
      <text
         xml:space="preserve"
         style="font-style:normal;font-variant:normal;font-weight:bold;font-stretch:normal;font-size:4.93889px;line-height:1.25;font-family:Arial;-inkscape-font-specification:'Arial, Bold';font-variant-ligatures:normal;font-variant-caps:normal;font-variant-numeric:normal;font-variant-east-asian:normal;stroke-width:0.264583"
         x="60.850777"
         y="62.720795"
         id="text7713-4-48-7"><tspan
           sodipodi:role="line"
           id="tspan9814-5-4"
           x="60.850777"
           y="62.720795">180째</tspan></text>
      <path
         style="fill:none;stroke:#000000;stroke-width:0.565;stroke-linecap:butt;stroke-linejoin:miter;stroke-miterlimit:4;stroke-dasharray:none;stroke-opacity:1;marker-start:url(#Arrow2Mstart-5-3)"
         d="m 120.94663,62.17324 5.63544,-0.11228"
         id="path27138-5-3"
         sodipodi:nodetypes="cc" />
      <path
         style="fill:none;stroke:#000000;stroke-width:0.765;stroke-linecap:butt;stroke-linejoin:miter;stroke-miterlimit:4;stroke-dasharray:1.53, 0.765;stroke-dashoffset:0;stroke-opacity:1"
         d="m 77.55782,61.70921 h 80.78367"
         id="path38682" />
      <path
         style="fill:none;stroke:#000000;stroke-width:0.765;stroke-linecap:butt;stroke-linejoin:miter;stroke-miterlimit:4;stroke-dasharray:1.53, 0.765;stroke-dashoffset:0;stroke-opacity:1"
         d="m 82.3555,66.25484 c 74.71916,0 74.71916,0 74.71916,0"
         id="path38684" />
      <text
         xml:space="preserve"
         style="font-weight:bold;font-size:5.64444px;line-height:1.25;font-family:Arial;-inkscape-font-specification:'Arial Bold';stroke-width:0.264583"
         x="138.9046"
         y="54.492584"
         id="text40229"><tspan
           sodipodi:role="line"
           id="tspan40227"
           style="font-size:5.64444px;stroke-width:0.264583"
           x="138.9046"
           y="54.492584">parallel</tspan></text>
      <path
         style="fill:none;stroke:#000000;stroke-width:0.465;stroke-linecap:butt;stroke-linejoin:miter;stroke-miterlimit:4;stroke-dasharray:none;stroke-opacity:1;marker-start:url(#Arrow2Mstart);marker-end:url(#marker149544)"
         d="m 141.0279,61.3412 c 0,0 0,0 4.15316,-5.81435 l 1.89003,10.45321"
         id="path41568" />
      <text
         xml:space="preserve"
         style="font-weight:bold;font-size:8.46667px;line-height:1.25;font-family:Arial;-inkscape-font-specification:'Arial Bold';stroke-width:0.264583"
         x="62.830818"
         y="10.846528"
         id="text42300"><tspan
           sodipodi:role="line"
           id="tspan42298"
           style="stroke-width:0.264583"
           x="62.830818"
           y="10.846528">a.</tspan></text>
      <text
         xml:space="preserve"
         style="font-style:normal;font-variant:normal;font-weight:bold;font-stretch:normal;font-size:8.46667px;line-height:1.25;font-family:Arial;-inkscape-font-specification:'Arial, Bold';font-variant-ligatures:normal;font-variant-caps:normal;font-variant-numeric:normal;font-variant-east-asian:normal;stroke-width:0.264583"
         x="62.471138"
         y="49.806793"
         id="text42300-7"><tspan
           sodipodi:role="line"
           id="tspan42521"
           x="62.471138"
           y="49.806793">b.</tspan></text>
      <text
         xml:space="preserve"
         style="font-style:normal;font-variant:normal;font-weight:bold;font-stretch:normal;font-size:8.46667px;line-height:1.25;font-family:Arial;-inkscape-font-specification:'Arial, Bold';font-variant-ligatures:normal;font-variant-caps:normal;font-variant-numeric:normal;font-variant-east-asian:normal;stroke-width:0.264583"
         x="62.806007"
         y="88.163086"
         id="text42300-7-7"><tspan
           sodipodi:role="line"
           id="tspan42574"
           x="62.806007"
           y="88.163086">c.</tspan></text>
    </g>
  </g>
</svg>
